<?xml version="1.0" encoding="iso-8859-1"?>
<!-- Uploaded to: SVG Repo, www.svgrepo.com, Generator: SVG Repo Mixer Tools -->
<svg height="800px" width="800px" version="1.1" id="Layer_1" xmlns="http://www.w3.org/2000/svg" xmlns:xlink="http://www.w3.org/1999/xlink" 
	 viewBox="0 0 491.52 491.52" xml:space="preserve">
<path style="fill:#2F4859;" d="M385.387,17.246H106.133c-10.864,0-19.672,8.807-19.672,19.672v434.931
	c0,10.863,8.807,19.671,19.672,19.671h279.253c10.864,0,19.672-8.807,19.672-19.671V36.918
	C405.058,26.053,396.251,17.246,385.387,17.246z"/>
<path style="fill:#64798A;" d="M385.387,0H106.133C95.269,0,86.462,8.807,86.462,19.671v434.931
	c0,10.864,8.807,19.672,19.672,19.672h279.253c10.864,0,19.672-8.807,19.672-19.672V19.671C405.058,8.807,396.251,0,385.387,0z"/>
<path style="fill:#EBF0F3;" d="M112.335,142.714V56.227c0-4.438,3.597-8.035,8.033-8.035h250.787c4.438,0,8.034,3.597,8.034,8.035
	v86.488c0,4.437-3.597,8.033-8.034,8.033H120.368C115.932,150.748,112.335,147.151,112.335,142.714z"/>
<path style="fill:#E1E6E9;" d="M112.335,142.714v-9.213H379.19v9.213c0,4.437-3.597,8.033-8.034,8.033H120.368
	C115.932,150.748,112.335,147.151,112.335,142.714z"/>
<path style="fill:#FCD462;" d="M144.53,228.115H116.02c-2.035,0-3.685-1.65-3.685-3.685V195.92c0-2.035,1.65-3.685,3.685-3.685
	h28.509c2.035,0,3.685,1.65,3.685,3.685v28.509C148.215,226.465,146.565,228.115,144.53,228.115z"/>
<path style="fill:#44C4A1;" d="M202.274,228.115h-28.51c-2.036,0-3.686-1.65-3.686-3.686V195.92c0-2.035,1.65-3.685,3.685-3.685
	h28.51c2.036,0,3.686,1.65,3.686,3.686v28.509C205.96,226.465,204.31,228.115,202.274,228.115z"/>
<path style="fill:#E56353;" d="M260.017,228.115h-28.509c-2.035,0-3.685-1.65-3.685-3.685V195.92c0-2.035,1.65-3.685,3.685-3.685
	h28.509c2.035,0,3.685,1.65,3.685,3.685v28.509C263.702,226.465,262.052,228.115,260.017,228.115z"/>
<path style="fill:#27A2DB;" d="M317.761,228.115h-28.509c-2.035,0-3.685-1.65-3.685-3.685V195.92c0-2.035,1.65-3.685,3.685-3.685
	h28.509c2.035,0,3.685,1.65,3.685,3.685v28.509C321.446,226.465,319.796,228.115,317.761,228.115z"/>
<g>
	<path style="fill:#E1E6E9;" d="M375.504,228.115h-28.51c-2.036,0-3.686-1.65-3.686-3.686V195.92c0-2.035,1.65-3.685,3.685-3.685
		h28.51c2.035,0,3.685,1.65,3.685,3.685v28.509C379.19,226.465,377.54,228.115,375.504,228.115z"/>
	<path style="fill:#E1E6E9;" d="M144.53,282.716H116.02c-2.035,0-3.685-1.65-3.685-3.685v-28.509c0-2.035,1.65-3.685,3.685-3.685
		h28.509c2.035,0,3.685,1.65,3.685,3.685v28.509C148.215,281.066,146.565,282.716,144.53,282.716z"/>
	<path style="fill:#E1E6E9;" d="M202.274,282.716h-28.51c-2.036,0-3.686-1.65-3.686-3.686v-28.509c0-2.035,1.65-3.685,3.685-3.685
		h28.51c2.036,0,3.686,1.65,3.686,3.686v28.509C205.96,281.066,204.31,282.716,202.274,282.716z"/>
	<path style="fill:#E1E6E9;" d="M260.017,282.716h-28.509c-2.035,0-3.685-1.65-3.685-3.685v-28.509c0-2.035,1.65-3.685,3.685-3.685
		h28.509c2.035,0,3.685,1.65,3.685,3.685v28.509C263.702,281.066,262.052,282.716,260.017,282.716z"/>
	<path style="fill:#E1E6E9;" d="M317.761,282.716h-28.509c-2.035,0-3.685-1.65-3.685-3.685v-28.509c0-2.035,1.65-3.685,3.685-3.685
		h28.509c2.035,0,3.685,1.65,3.685,3.685v28.509C321.446,281.066,319.796,282.716,317.761,282.716z"/>
	<path style="fill:#E1E6E9;" d="M375.504,282.716h-28.51c-2.036,0-3.686-1.65-3.686-3.686v-28.509c0-2.035,1.65-3.685,3.685-3.685
		h28.51c2.035,0,3.685,1.65,3.685,3.685v28.509C379.19,281.066,377.54,282.716,375.504,282.716z"/>
	<path style="fill:#E1E6E9;" d="M144.529,337.317H116.02c-2.035,0-3.685-1.65-3.685-3.685v-28.51c0-2.036,1.65-3.686,3.686-3.686
		h28.508c2.036,0,3.686,1.65,3.686,3.686v28.509C148.215,335.667,146.565,337.317,144.529,337.317z"/>
	<path style="fill:#E1E6E9;" d="M202.274,337.317h-28.509c-2.036,0-3.686-1.65-3.686-3.686v-28.509c0-2.036,1.65-3.686,3.686-3.686
		h28.509c2.036,0,3.686,1.65,3.686,3.686v28.509C205.96,335.667,204.309,337.317,202.274,337.317z"/>
	<path style="fill:#E1E6E9;" d="M260.017,337.317h-28.509c-2.035,0-3.685-1.65-3.685-3.685v-28.51c0-2.036,1.65-3.686,3.686-3.686
		h28.509c2.035,0,3.685,1.65,3.685,3.685v28.51C263.702,335.667,262.052,337.317,260.017,337.317z"/>
	<path style="fill:#E1E6E9;" d="M317.76,337.317h-28.509c-2.035,0-3.685-1.65-3.685-3.685v-28.51c0-2.036,1.65-3.686,3.686-3.686
		h28.509c2.035,0,3.685,1.65,3.685,3.685v28.51C321.446,335.667,319.796,337.317,317.76,337.317z"/>
	<path style="fill:#E1E6E9;" d="M375.504,337.317h-28.509c-2.036,0-3.686-1.65-3.686-3.686v-28.509c0-2.036,1.65-3.686,3.686-3.686
		h28.509c2.036,0,3.686,1.65,3.686,3.686v28.509C379.19,335.667,377.539,337.317,375.504,337.317z"/>
	<path style="fill:#E1E6E9;" d="M144.53,391.917H116.02c-2.035,0-3.685-1.65-3.685-3.685v-28.509c0-2.035,1.65-3.685,3.685-3.685
		h28.509c2.035,0,3.685,1.65,3.685,3.685v28.509C148.215,390.267,146.565,391.917,144.53,391.917z"/>
	<path style="fill:#E1E6E9;" d="M202.274,391.917h-28.51c-2.036,0-3.686-1.65-3.686-3.686v-28.509c0-2.035,1.65-3.685,3.685-3.685
		h28.51c2.036,0,3.686,1.65,3.686,3.686v28.509C205.96,390.267,204.31,391.917,202.274,391.917z"/>
	<path style="fill:#E1E6E9;" d="M260.017,391.917h-28.509c-2.035,0-3.685-1.65-3.685-3.685v-28.509c0-2.035,1.65-3.685,3.685-3.685
		h28.509c2.035,0,3.685,1.65,3.685,3.685v28.509C263.702,390.267,262.052,391.917,260.017,391.917z"/>
	<path style="fill:#E1E6E9;" d="M317.761,391.917h-28.509c-2.035,0-3.685-1.65-3.685-3.685v-28.509c0-2.035,1.65-3.685,3.685-3.685
		h28.509c2.035,0,3.685,1.65,3.685,3.685v28.509C321.446,390.267,319.796,391.917,317.761,391.917z"/>
	<path style="fill:#E1E6E9;" d="M144.53,446.518H116.02c-2.035,0-3.685-1.65-3.685-3.685v-28.51c0-2.036,1.65-3.686,3.686-3.686
		h28.509c2.035,0,3.685,1.65,3.685,3.685v28.51C148.215,444.868,146.565,446.518,144.53,446.518z"/>
	<path style="fill:#E1E6E9;" d="M202.274,446.518h-28.51c-2.035,0-3.685-1.65-3.685-3.685v-28.51c0-2.036,1.65-3.686,3.686-3.686
		h28.509c2.036,0,3.686,1.65,3.686,3.686v28.51C205.96,444.868,204.31,446.518,202.274,446.518z"/>
	<path style="fill:#E1E6E9;" d="M260.017,446.518h-28.509c-2.035,0-3.685-1.65-3.685-3.685v-28.51c0-2.036,1.65-3.686,3.686-3.686
		h28.509c2.035,0,3.685,1.65,3.685,3.685v28.51C263.702,444.868,262.052,446.518,260.017,446.518z"/>
	<path style="fill:#E1E6E9;" d="M317.761,446.518h-28.509c-2.035,0-3.685-1.65-3.685-3.685v-28.51c0-2.036,1.65-3.686,3.686-3.686
		h28.509c2.035,0,3.685,1.65,3.685,3.685v28.51C321.446,444.868,319.796,446.518,317.761,446.518z"/>
</g>
<path style="fill:#E56353;" d="M375.504,446.518h-28.51c-2.036,0-3.686-1.65-3.686-3.686v-83.11c0-2.035,1.65-3.685,3.685-3.685
	h28.51c2.035,0,3.685,1.65,3.685,3.685v83.11C379.19,444.868,377.54,446.518,375.504,446.518z"/>
</svg>